<svg xmlns="http://www.w3.org/2000/svg" viewBox="0 0 32.85 32.9"><defs><style>.cls-1{fill:#2c3333;}</style></defs><g id="Layer_2" data-name="Layer 2"><g id="Layer_1-2" data-name="Layer 1"><circle class="cls-1" cx="20.26" cy="12.62" r="2.55"/><path class="cls-1" d="M23.93,8a5.91,5.91,0,0,0-9.28,2.76,4.46,4.46,0,0,0,1.12,4.53l1.84,1.84a4.41,4.41,0,0,0,4.19,1.21A5.91,5.91,0,0,0,23.93,8Zm-6,7a3.33,3.33,0,1,1,4.7,0A3.33,3.33,0,0,1,17.91,15Z"/><path class="cls-1" d="M28,17.77a9.28,9.28,0,0,1-4.56,3.56,2,2,0,0,1-2.06-.49l-.46-.47a.67.67,0,0,1,.38-1.15,6.68,6.68,0,1,0-7.61-7.6.67.67,0,0,1-1.14.38L12,11.53a2,2,0,0,1-.5-2.06A9.4,9.4,0,0,1,13.7,6.06,9.27,9.27,0,0,1,28,17.77Z"/><path class="cls-1" d="M30,20.66a12.55,12.55,0,0,1-4.07,3.24,1.55,1.55,0,0,1-1.8-.3l-.5-.49A.68.68,0,0,1,23.85,22,10,10,0,1,0,13.16,5.52,9.82,9.82,0,0,0,10.89,9a.69.69,0,0,1-1.12.25l-.48-.48A1.63,1.63,0,0,1,9,6.94a12.86,12.86,0,0,1,2.35-3.25A12.62,12.62,0,0,1,30,20.66Z"/><circle class="cls-1" cx="12.59" cy="20.28" r="2.55"/><path class="cls-1" d="M8.92,24.92a5.9,5.9,0,0,0,9.27-2.76,4.44,4.44,0,0,0-1.12-4.53l-1.84-1.84A4.37,4.37,0,0,0,11,14.58,5.91,5.91,0,0,0,8.92,24.92Zm6-7a3.32,3.32,0,1,1-4.7,0A3.33,3.33,0,0,1,14.94,17.93Z"/><path class="cls-1" d="M4.89,15.12a9.26,9.26,0,0,1,4.56-3.55,2,2,0,0,1,2.05.49l.47.47a.68.68,0,0,1-.38,1.15A6.68,6.68,0,1,0,17.31,25a6.61,6.61,0,0,0,1.88-3.73.68.68,0,0,1,1.15-.38l.47.47a2,2,0,0,1,.49,2.06,9.14,9.14,0,0,1-2.16,3.41A9.27,9.27,0,0,1,4.89,15.12Z"/><path class="cls-1" d="M2.86,12.24A12.52,12.52,0,0,1,7,9a1.46,1.46,0,0,1,1.66.27l.47.48A.7.7,0,0,1,9,10.91,10,10,0,1,0,19.69,27.38,9.82,9.82,0,0,0,22,23.88a.68.68,0,0,1,1.11-.25l.48.48A1.6,1.6,0,0,1,23.86,26a12.62,12.62,0,0,1-20.4,3A12.72,12.72,0,0,1,2.86,12.24Z"/></g></g></svg>